<?xml version="1.0" standalone="no"?><!DOCTYPE svg PUBLIC "-//W3C//DTD SVG 1.1//EN" "http://www.w3.org/Graphics/SVG/1.1/DTD/svg11.dtd"><svg t="1507863513144" class="icon" style="" viewBox="0 0 1024 1024" version="1.1" xmlns="http://www.w3.org/2000/svg" p-id="5979" xmlns:xlink="http://www.w3.org/1999/xlink" width="64" height="64"><defs><style type="text/css"></style></defs><path d="M512 0C228.693333 0 0 228.693333 0 512s228.693333 512 512 512 512-228.693333 512-512S795.306667 0 512 0z m220.16 657.066667c20.48 23.893333 23.893333 54.613333 8.533333 71.68l-11.946666 11.946666c-15.36 15.36-47.786667 13.653333-71.68-8.533333L512 605.866667 366.933333 733.866667c-23.893333 20.48-54.613333 23.893333-71.68 8.533333l-11.946666-11.946667c-15.36-15.36-13.653333-47.786667 8.533333-71.68l121.173333-138.24-90.453333-80.213333c-63.146667-54.613333-58.026667-92.16-27.306667-121.173333l22.186667-22.186667c30.72-30.72 66.56-35.84 121.173333 27.306667l73.386667 83.626666 73.386667-83.626666c54.613333-63.146667 92.16-58.026667 121.173333-27.306667l22.186667 22.186667c30.72 30.72 35.84 66.56-27.306667 121.173333l-90.453333 80.213333 121.173333 136.533334z" fill="#E4393C" p-id="5980"></path></svg>