<?xml version="1.0" standalone="no"?><!DOCTYPE svg PUBLIC "-//W3C//DTD SVG 1.1//EN" "http://www.w3.org/Graphics/SVG/1.1/DTD/svg11.dtd"><svg t="1521119312491" class="icon" style="" viewBox="0 0 1024 1024" version="1.1" xmlns="http://www.w3.org/2000/svg" p-id="11842" xmlns:xlink="http://www.w3.org/1999/xlink" width="120" height="120"><defs><style type="text/css"></style></defs><path d="M268.8 748.8h332.8c-19.2-12.8-25.6-25.6-32-44.8H268.8c-38.4 0-64-32-64-64V262.4c0-38.4 32-64 64-64h467.2c38.4 0 64 32 64 64v204.8c19.2 6.4 32 12.8 44.8 32V262.4c0-64-44.8-108.8-108.8-108.8H268.8c-64 0-108.8 44.8-108.8 108.8V640c-6.4 64 44.8 108.8 108.8 108.8zM755.2 800c-6.4 0-19.2 6.4-32 6.4s-19.2 0-32-6.4h-512c-12.8 0-25.6 12.8-25.6 25.6s12.8 25.6 25.6 25.6H832l-51.2-51.2h-25.6z" fill="#1b6d85" p-id="11843"></path><path d="M934.4 819.2l-76.8-76.8c25.6-32 44.8-70.4 44.8-108.8 0-89.6-70.4-166.4-166.4-166.4S569.6 537.6 569.6 627.2s70.4 166.4 166.4 166.4c32 0 57.6-6.4 83.2-19.2l83.2 83.2c6.4 6.4 12.8 6.4 19.2 6.4 6.4 0 12.8 0 19.2-6.4 0-12.8 0-25.6-6.4-38.4z m-313.6-192c0-64 51.2-115.2 115.2-115.2s115.2 51.2 115.2 115.2-51.2 115.2-115.2 115.2-115.2-51.2-115.2-115.2zM352 409.6c44.8 0 76.8-32 76.8-76.8S396.8 256 352 256s-76.8 32-76.8 76.8 32 76.8 76.8 76.8z" fill="#1b6d85" p-id="11844"></path><path d="M352 288c25.6 0 44.8 19.2 44.8 44.8 0 25.6-19.2 44.8-44.8 44.8-25.6 0-44.8-19.2-44.8-44.8 0-25.6 19.2-44.8 44.8-44.8zM294.4 486.4h121.6c6.4 0 19.2-6.4 19.2-19.2S422.4 448 409.6 448H294.4c-12.8 0-19.2 12.8-19.2 19.2s6.4 19.2 19.2 19.2z" fill="#1b6d85" p-id="11845"></path><path d="M723.2 384v-6.4l-57.6-57.6c-6.4-6.4-19.2-6.4-25.6 0-6.4 6.4-6.4 19.2 0 25.6l19.2 19.2h-64-6.4l-179.2 192H294.4c-6.4 0-19.2 6.4-19.2 19.2s6.4 19.2 19.2 19.2h121.6c6.4 0 6.4 0 12.8-6.4l179.2-185.6h51.2l-19.2 6.4c-6.4 0-12.8 12.8-6.4 19.2 6.4 6.4 6.4 6.4 12.8 6.4s6.4 0 12.8-6.4l57.6-44.8h6.4z" fill="#1b6d85" p-id="11846"></path></svg>