<svg xmlns="http://www.w3.org/2000/svg" xmlns:xlink="http://www.w3.org/1999/xlink" id="processonSvg1000" viewBox="75.0 145.0 1148.0 362.5287958115183" width="1148.0" height="362.5287958115183"><defs id="ProcessOnDefs1001"><marker id="ProcessOnMarker1045" markerUnits="userSpaceOnUse" orient="auto" markerWidth="16.578173737993104" markerHeight="20.67308864962845" viewBox="-1.1755705045849463 -1.618033988749895 16.578173737993104 20.67308864962845" refX="2.2270327288232132" refY="8.71851033606433"><path id="ProcessOnPath1046" d="M0 0L12.0 8.71851033606433L0 17.43702067212866" stroke="#a1a1a1" stroke-width="4.0" fill="none" transform="matrix(-1.0,1.2246467991473532E-16,-1.2246467991473532E-16,-1.0,14.227032728823211,17.43702067212866)"/></marker><marker id="ProcessOnMarker1066" markerUnits="userSpaceOnUse" orient="auto" markerWidth="16.578173737993104" markerHeight="20.67308864962845" viewBox="-1.1755705045849463 -1.618033988749895 16.578173737993104 20.67308864962845" refX="2.2270327288232132" refY="8.71851033606433"><path id="ProcessOnPath1067" d="M0 0L12.0 8.71851033606433L0 17.43702067212866" stroke="#a1a1a1" stroke-width="4.0" fill="none" transform="matrix(-1.0,1.2246467991473532E-16,-1.2246467991473532E-16,-1.0,14.227032728823211,17.43702067212866)"/></marker><marker id="ProcessOnMarker1087" markerUnits="userSpaceOnUse" orient="auto" markerWidth="16.578173737993104" markerHeight="20.67308864962845" viewBox="-1.1755705045849463 -1.618033988749895 16.578173737993104 20.67308864962845" refX="2.2270327288232132" refY="8.71851033606433"><path id="ProcessOnPath1088" d="M0 0L12.0 8.71851033606433L0 17.43702067212866" stroke="#a1a1a1" stroke-width="4.0" fill="none" transform="matrix(-1.0,1.2246467991473532E-16,-1.2246467991473532E-16,-1.0,14.227032728823211,17.43702067212866)"/></marker><marker id="ProcessOnMarker1116" markerUnits="userSpaceOnUse" orient="auto" markerWidth="16.578173737993104" markerHeight="20.67308864962845" viewBox="-1.1755705045849463 -1.618033988749895 16.578173737993104 20.67308864962845" refX="2.2270327288232132" refY="8.71851033606433"><path id="ProcessOnPath1117" d="M0 0L12.0 8.71851033606433L0 17.43702067212866" stroke="#a1a1a1" stroke-width="4.0" fill="none" transform="matrix(-1.0,1.2246467991473532E-16,-1.2246467991473532E-16,-1.0,14.227032728823211,17.43702067212866)"/></marker><marker id="ProcessOnMarker1137" markerUnits="userSpaceOnUse" orient="auto" markerWidth="16.578173737993104" markerHeight="20.67308864962845" viewBox="-1.1755705045849463 -1.618033988749895 16.578173737993104 20.67308864962845" refX="2.2270327288232132" refY="8.71851033606433"><path id="ProcessOnPath1138" d="M0 0L12.0 8.71851033606433L0 17.43702067212866" stroke="#a1a1a1" stroke-width="4.0" fill="none" transform="matrix(-1.0,1.2246467991473532E-16,-1.2246467991473532E-16,-1.0,14.227032728823211,17.43702067212866)"/></marker><marker id="ProcessOnMarker1157" markerUnits="userSpaceOnUse" orient="auto" markerWidth="16.578173737993104" markerHeight="20.67308864962845" viewBox="-1.1755705045849463 -1.618033988749895 16.578173737993104 20.67308864962845" refX="2.2270327288232132" refY="8.71851033606433"><path id="ProcessOnPath1158" d="M0 0L12.0 8.71851033606433L0 17.43702067212866" stroke="#a1a1a1" stroke-width="4.0" fill="none" transform="matrix(-1.0,1.2246467991473532E-16,-1.2246467991473532E-16,-1.0,14.227032728823211,17.43702067212866)"/></marker></defs><g id="ProcessOnG1002"><path id="ProcessOnPath1003" d="M75.0 145.0H1223.0V507.5287958115183H75.0V145.0Z" fill="none"/><g id="ProcessOnG1004"><g id="ProcessOnG1005"><path id="ProcessOnPath1006" d="M95.0 320.0L649.0 320.0L649.0 320.0L1203.0 320.0" stroke="#323232" stroke-width="8.0" stroke-dasharray="none" fill="none"/></g><g id="ProcessOnG1007"><path id="ProcessOnPath1008" d="M95.0 327.0L649.0 327.0L649.0 327.0L1203.0 327.0" stroke="#ffffcc" stroke-width="8.0" stroke-dasharray="none" fill="none"/></g><g id="ProcessOnG1009"><path id="ProcessOnPath1010" d="M95.0 335.0L649.0 335.0L649.0 335.0L1203.0 335.0" stroke="#323232" stroke-width="8.0" stroke-dasharray="none" fill="none"/></g><g id="ProcessOnG1011" transform="matrix(1.0,0.0,0.0,1.0,180.0,303.0)" opacity="1.0"><path id="ProcessOnPath1012" d="M10.15 0.0L47.85 0.0L58.0 24.166666666666668L47.85 48.333333333333336L10.15 48.333333333333336L0.0 24.166666666666668L10.15 0.0Z" stroke="#ffffff" stroke-width="1.0" stroke-dasharray="none" opacity="1.0" fill="#99ccff"/><g id="ProcessOnG1013" transform="matrix(1.0,0.0,0.0,1.0,10.0,10.416666666666668)"><text id="ProcessOnText1014" fill="#ffffff" font-size="22" x="18.0" y="22.55" font-family="微软雅黑" font-weight="normal" font-style="normal" text-decoration="none" family="微软雅黑" text-anchor="middle" size="22">01</text></g></g><g id="ProcessOnG1015" transform="matrix(1.0,0.0,0.0,1.0,356.4,303.0)" opacity="1.0"><path id="ProcessOnPath1016" d="M10.15 0.0L47.85 0.0L58.0 24.166666666666668L47.85 48.333333333333336L10.15 48.333333333333336L0.0 24.166666666666668L10.15 0.0Z" stroke="#ffffff" stroke-width="1.0" stroke-dasharray="none" opacity="1.0" fill="#ffcccc"/><g id="ProcessOnG1017" transform="matrix(1.0,0.0,0.0,1.0,10.0,10.416666666666668)"><text id="ProcessOnText1018" fill="#ffffff" font-size="22" x="18.0" y="22.55" font-family="微软雅黑" font-weight="normal" font-style="normal" text-decoration="none" family="微软雅黑" text-anchor="middle" size="22">02</text></g></g><g id="ProcessOnG1019" transform="matrix(1.0,0.0,0.0,1.0,532.8,303.0)" opacity="1.0"><path id="ProcessOnPath1020" d="M10.15 0.0L47.85 0.0L58.0 24.166666666666668L47.85 48.333333333333336L10.15 48.333333333333336L0.0 24.166666666666668L10.15 0.0Z" stroke="#ffffff" stroke-width="1.0" stroke-dasharray="none" opacity="1.0" fill="#ffb366"/><g id="ProcessOnG1021" transform="matrix(1.0,0.0,0.0,1.0,10.0,10.416666666666668)"><text id="ProcessOnText1022" fill="#ffffff" font-size="22" x="18.0" y="22.55" font-family="微软雅黑" font-weight="normal" font-style="normal" text-decoration="none" family="微软雅黑" text-anchor="middle" size="22">03</text></g></g><g id="ProcessOnG1023" transform="matrix(1.0,0.0,0.0,1.0,709.1999999999999,303.0)" opacity="1.0"><path id="ProcessOnPath1024" d="M10.15 0.0L47.85 0.0L58.0 24.166666666666668L47.85 48.333333333333336L10.15 48.333333333333336L0.0 24.166666666666668L10.15 0.0Z" stroke="#ffffff" stroke-width="1.0" stroke-dasharray="none" opacity="1.0" fill="#ffcce6"/><g id="ProcessOnG1025" transform="matrix(1.0,0.0,0.0,1.0,10.0,10.416666666666668)"><text id="ProcessOnText1026" fill="#ffffff" font-size="22" x="18.0" y="22.55" font-family="微软雅黑" font-weight="normal" font-style="normal" text-decoration="none" family="微软雅黑" text-anchor="middle" size="22">04</text></g></g><g id="ProcessOnG1027" transform="matrix(1.0,0.0,0.0,1.0,885.5999999999999,303.0)" opacity="1.0"><path id="ProcessOnPath1028" d="M10.15 0.0L47.85 0.0L58.0 24.166666666666668L47.85 48.333333333333336L10.15 48.333333333333336L0.0 24.166666666666668L10.15 0.0Z" stroke="#ffffff" stroke-width="1.0" stroke-dasharray="none" opacity="1.0" fill="#cccc00"/><g id="ProcessOnG1029" transform="matrix(1.0,0.0,0.0,1.0,10.0,10.416666666666668)"><text id="ProcessOnText1030" fill="#ffffff" font-size="22" x="18.0" y="22.55" font-family="微软雅黑" font-weight="normal" font-style="normal" text-decoration="none" family="微软雅黑" text-anchor="middle" size="22">05</text></g></g><g id="ProcessOnG1031" transform="matrix(1.0,0.0,0.0,1.0,1062.0,303.0)" opacity="1.0"><path id="ProcessOnPath1032" d="M10.15 0.0L47.85 0.0L58.0 24.166666666666668L47.85 48.333333333333336L10.15 48.333333333333336L0.0 24.166666666666668L10.15 0.0Z" stroke="#ffffff" stroke-width="1.0" stroke-dasharray="none" opacity="1.0" fill="#99ff99"/><g id="ProcessOnG1033" transform="matrix(1.0,0.0,0.0,1.0,10.0,10.416666666666668)"><text id="ProcessOnText1034" fill="#ffffff" font-size="22" x="18.0" y="22.55" font-family="微软雅黑" font-weight="normal" font-style="normal" text-decoration="none" family="微软雅黑" text-anchor="middle" size="22">06</text></g></g><g id="ProcessOnG1035" transform="matrix(1.0,0.0,0.0,1.0,154.0,370.0)" opacity="1.0"><path id="ProcessOnPath1036" d="M24.681047120418846 0.0L219.31895287958116 0.0L244.0 58.76439790575916L219.31895287958116 117.52879581151832L24.681047120418846 117.52879581151832L0.0 58.76439790575916L24.681047120418846 0.0Z" stroke="#323232" stroke-width="2.0" stroke-dasharray="none" opacity="1.0" fill="#ffffff"/></g><g id="ProcessOnG1037" transform="matrix(1.0,0.0,0.0,1.0,196.0,397.0)" opacity="1.0"><path id="ProcessOnPath1038" d="M0.0 0.0L160.0 0.0L160.0 40.0L0.0 40.0Z" stroke="none" stroke-width="0.0" stroke-dasharray="none" opacity="1.0" fill="none"/><g id="ProcessOnG1039" transform="matrix(1.0,0.0,0.0,1.0,0.0,11.875)"><text id="ProcessOnText1040" fill="#994c00" font-size="13" x="79.0" y="13.325" font-family="微软雅黑" font-weight="normal" font-style="normal" text-decoration="none" family="微软雅黑" text-anchor="middle" size="13">第一阶段</text></g></g><g id="ProcessOnG1041"><path id="ProcessOnPath1042" d="M183.0 400.0L275.0 400.0L275.0 400.0L367.0 400.0" stroke="#a1a1a1" stroke-width="3.0" stroke-dasharray="none" fill="none"/></g><g id="ProcessOnG1043"><path id="ProcessOnPath1044" d="M212.0 382.0L212.0 388.0L212.0 388.0L212.0 394.0" stroke="#a1a1a1" stroke-width="4.0" stroke-dasharray="none" fill="none" marker-start="url(#ProcessOnMarker1045)"/></g><g id="ProcessOnG1047" transform="matrix(1.0,0.0,0.0,1.0,189.5,422.0)" opacity="1.0"><path id="ProcessOnPath1048" d="M0.0 0.0L177.5 0.0L177.5 38.0L0.0 38.0Z" stroke="none" stroke-width="0.0" stroke-dasharray="none" opacity="1.0" fill="none"/><g id="ProcessOnG1049" transform="matrix(1.0,0.0,0.0,1.0,0.0,4.0)"><text id="ProcessOnText1050" fill="#000000" font-size="12" x="0.0" y="12.3" font-family="微软雅黑" font-weight="normal" font-style="normal" text-decoration="none" family="微软雅黑" text-anchor="start" size="12">开通义务教育入学服务平台入学</text><text id="ProcessOnText1051" fill="#000000" font-size="12" x="0.0" y="27.3" font-family="微软雅黑" font-weight="normal" font-style="normal" text-decoration="none" family="微软雅黑" text-anchor="start" size="12">政策宣传门户</text></g></g><g id="ProcessOnG1052" transform="matrix(1.0,0.0,0.0,1.0,154.0,447.5287958115183)" opacity="1.0"><path id="ProcessOnPath1053" d="M0.0 0.0L160.0 0.0L160.0 40.0L0.0 40.0Z" stroke="none" stroke-width="0.0" stroke-dasharray="none" opacity="1.0" fill="none"/><g id="ProcessOnG1054" transform="matrix(1.0,0.0,0.0,1.0,0.0,12.5)"><text id="ProcessOnText1055" fill="#994c00" font-size="12" x="79.0" y="12.3" font-family="微软雅黑" font-weight="normal" font-style="normal" text-decoration="none" family="微软雅黑" text-anchor="middle" size="12">（2018年5月1日）</text></g></g><g id="ProcessOnG1056" transform="matrix(1.0,0.0,0.0,1.0,505.0,370.0)" opacity="1.0"><path id="ProcessOnPath1057" d="M24.681047120418846 0.0L219.31895287958116 0.0L244.0 58.76439790575916L219.31895287958116 117.52879581151832L24.681047120418846 117.52879581151832L0.0 58.76439790575916L24.681047120418846 0.0Z" stroke="#323232" stroke-width="2.0" stroke-dasharray="none" opacity="1.0" fill="#ffffff"/></g><g id="ProcessOnG1058" transform="matrix(1.0,0.0,0.0,1.0,547.0,397.0)" opacity="1.0"><path id="ProcessOnPath1059" d="M0.0 0.0L160.0 0.0L160.0 40.0L0.0 40.0Z" stroke="none" stroke-width="0.0" stroke-dasharray="none" opacity="1.0" fill="none"/><g id="ProcessOnG1060" transform="matrix(1.0,0.0,0.0,1.0,0.0,11.875)"><text id="ProcessOnText1061" fill="#994c00" font-size="13" x="79.0" y="13.325" font-family="微软雅黑" font-weight="normal" font-style="normal" text-decoration="none" family="微软雅黑" text-anchor="middle" size="13">第三阶段</text></g></g><g id="ProcessOnG1062"><path id="ProcessOnPath1063" d="M534.0 400.0L626.0 400.0L626.0 400.0L718.0 400.0" stroke="#a1a1a1" stroke-width="3.0" stroke-dasharray="none" fill="none"/></g><g id="ProcessOnG1064"><path id="ProcessOnPath1065" d="M563.0 382.0L563.0 388.0L563.0 388.0L563.0 394.0" stroke="#a1a1a1" stroke-width="4.0" stroke-dasharray="none" fill="none" marker-start="url(#ProcessOnMarker1066)"/></g><g id="ProcessOnG1068" transform="matrix(1.0,0.0,0.0,1.0,540.5,422.0)" opacity="1.0"><path id="ProcessOnPath1069" d="M0.0 0.0L177.5 0.0L177.5 38.0L0.0 38.0Z" stroke="none" stroke-width="0.0" stroke-dasharray="none" opacity="1.0" fill="none"/><g id="ProcessOnG1070" transform="matrix(1.0,0.0,0.0,1.0,0.0,4.0)"><text id="ProcessOnText1071" fill="#000000" font-size="12" x="0.0" y="12.3" font-family="微软雅黑" font-weight="normal" font-style="normal" text-decoration="none" family="微软雅黑" text-anchor="start" size="12">民办学校在小学入学服务系统中</text><text id="ProcessOnText1072" fill="#000000" font-size="12" x="0.0" y="27.3" font-family="微软雅黑" font-weight="normal" font-style="normal" text-decoration="none" family="微软雅黑" text-anchor="start" size="12">完成跨区招生工作</text></g></g><g id="ProcessOnG1073" transform="matrix(1.0,0.0,0.0,1.0,505.0,447.5287958115183)" opacity="1.0"><path id="ProcessOnPath1074" d="M0.0 0.0L160.0 0.0L160.0 40.0L0.0 40.0Z" stroke="none" stroke-width="0.0" stroke-dasharray="none" opacity="1.0" fill="none"/><g id="ProcessOnG1075" transform="matrix(1.0,0.0,0.0,1.0,0.0,12.5)"><text id="ProcessOnText1076" fill="#994c00" font-size="12" x="79.0" y="12.3" font-family="微软雅黑" font-weight="normal" font-style="normal" text-decoration="none" family="微软雅黑" text-anchor="middle" size="12">（2018年6月10日前）</text></g></g><g id="ProcessOnG1077" transform="matrix(1.0,0.0,0.0,1.0,863.0,370.0)" opacity="1.0"><path id="ProcessOnPath1078" d="M24.681047120418846 0.0L219.31895287958116 0.0L244.0 58.76439790575916L219.31895287958116 117.52879581151832L24.681047120418846 117.52879581151832L0.0 58.76439790575916L24.681047120418846 0.0Z" stroke="#323232" stroke-width="2.0" stroke-dasharray="none" opacity="1.0" fill="#ffffff"/></g><g id="ProcessOnG1079" transform="matrix(1.0,0.0,0.0,1.0,905.0,397.0)" opacity="1.0"><path id="ProcessOnPath1080" d="M0.0 0.0L160.0 0.0L160.0 40.0L0.0 40.0Z" stroke="none" stroke-width="0.0" stroke-dasharray="none" opacity="1.0" fill="none"/><g id="ProcessOnG1081" transform="matrix(1.0,0.0,0.0,1.0,0.0,11.875)"><text id="ProcessOnText1082" fill="#994c00" font-size="13" x="79.0" y="13.325" font-family="微软雅黑" font-weight="normal" font-style="normal" text-decoration="none" family="微软雅黑" text-anchor="middle" size="13">第五阶段</text></g></g><g id="ProcessOnG1083"><path id="ProcessOnPath1084" d="M892.0 400.0L984.0 400.0L984.0 400.0L1076.0 400.0" stroke="#a1a1a1" stroke-width="3.0" stroke-dasharray="none" fill="none"/></g><g id="ProcessOnG1085"><path id="ProcessOnPath1086" d="M921.0 382.0L921.0 388.0L921.0 388.0L921.0 394.0" stroke="#a1a1a1" stroke-width="4.0" stroke-dasharray="none" fill="none" marker-start="url(#ProcessOnMarker1087)"/></g><g id="ProcessOnG1089" transform="matrix(1.0,0.0,0.0,1.0,898.5,422.0)" opacity="1.0"><path id="ProcessOnPath1090" d="M0.0 0.0L177.5 0.0L177.5 38.0L0.0 38.0Z" stroke="none" stroke-width="0.0" stroke-dasharray="none" opacity="1.0" fill="none"/><g id="ProcessOnG1091" transform="matrix(1.0,0.0,0.0,1.0,0.0,11.5)"><text id="ProcessOnText1092" fill="#000000" font-size="12" x="0.0" y="12.3" font-family="微软雅黑" font-weight="normal" font-style="normal" text-decoration="none" family="微软雅黑" text-anchor="start" size="12">各小学发放录取通知书</text></g></g><g id="ProcessOnG1093" transform="matrix(1.0,0.0,0.0,1.0,863.0,447.5287958115183)" opacity="1.0"><path id="ProcessOnPath1094" d="M0.0 0.0L160.0 0.0L160.0 40.0L0.0 40.0Z" stroke="none" stroke-width="0.0" stroke-dasharray="none" opacity="1.0" fill="none"/><g id="ProcessOnG1095" transform="matrix(1.0,0.0,0.0,1.0,0.0,12.5)"><text id="ProcessOnText1096" fill="#994c00" font-size="12" x="79.0" y="12.3" font-family="微软雅黑" font-weight="normal" font-style="normal" text-decoration="none" family="微软雅黑" text-anchor="middle" size="12">（2018年七月）</text></g></g><g id="ProcessOnG1097" transform="matrix(1.0,0.0,0.0,1.0,547.0,168.0)" opacity="1.0"><path id="ProcessOnPath1098" d="M24.681047120418846 0.0L219.31895287958116 0.0L244.0 58.76439790575916L219.31895287958116 117.52879581151832L24.681047120418846 117.52879581151832L0.0 58.76439790575916L24.681047120418846 0.0Z" stroke="#323232" stroke-width="2.0" stroke-dasharray="none" opacity="1.0" fill="#ffffff"/></g><g id="ProcessOnG1099" transform="matrix(1.0,0.0,0.0,1.0,586.0,165.0)" opacity="1.0"><path id="ProcessOnPath1100" d="M0.0 0.0L160.0 0.0L160.0 40.0L0.0 40.0Z" stroke="none" stroke-width="0.0" stroke-dasharray="none" opacity="1.0" fill="none"/><g id="ProcessOnG1101" transform="matrix(1.0,0.0,0.0,1.0,0.0,11.875)"><text id="ProcessOnText1102" fill="#994c00" font-size="13" x="79.0" y="13.325" font-family="微软雅黑" font-weight="normal" font-style="normal" text-decoration="none" family="微软雅黑" text-anchor="middle" size="13">第四阶段</text></g></g><g id="ProcessOnG1103"><path id="ProcessOnPath1104" d="M577.0 256.0L669.0 256.0L669.0 256.0L761.0 256.0" stroke="#a1a1a1" stroke-width="3.0" stroke-dasharray="none" fill="none"/></g><g id="ProcessOnG1105" transform="matrix(1.0,0.0,0.0,1.0,580.25,196.0)" opacity="1.0"><path id="ProcessOnPath1106" d="M0.0 0.0L177.5 0.0L177.5 38.0L0.0 38.0Z" stroke="none" stroke-width="0.0" stroke-dasharray="none" opacity="1.0" fill="none"/><g id="ProcessOnG1107" transform="matrix(1.0,0.0,0.0,1.0,0.0,11.5)"><text id="ProcessOnText1108" fill="#000000" font-size="12" x="0.0" y="12.3" font-family="微软雅黑" font-weight="normal" font-style="normal" text-decoration="none" family="微软雅黑" text-anchor="start" size="12">小学审核入学相关资料</text></g></g><g id="ProcessOnG1109" transform="matrix(1.0,0.0,0.0,1.0,547.0,221.5287958115183)" opacity="1.0"><path id="ProcessOnPath1110" d="M0.0 0.0L160.0 0.0L160.0 40.0L0.0 40.0Z" stroke="none" stroke-width="0.0" stroke-dasharray="none" opacity="1.0" fill="none"/><g id="ProcessOnG1111" transform="matrix(1.0,0.0,0.0,1.0,0.0,5.0)"><text id="ProcessOnText1112" fill="#994c00" font-size="12" x="79.0" y="12.3" font-family="微软雅黑" font-weight="normal" font-style="normal" text-decoration="none" family="微软雅黑" text-anchor="middle" size="12">（2017年6月17日～6月18日</text><text id="ProcessOnText1113" fill="#994c00" font-size="12" x="79.0" y="27.3" font-family="微软雅黑" font-weight="normal" font-style="normal" text-decoration="none" family="微软雅黑" text-anchor="middle" size="12">）</text></g></g><g id="ProcessOnG1114"><path id="ProcessOnPath1115" d="M745.0 275.0L745.0 268.26439790575915L745.0 268.26439790575915L745.0 261.5287958115183" stroke="#a1a1a1" stroke-width="4.0" stroke-dasharray="none" fill="none" marker-start="url(#ProcessOnMarker1116)"/></g><g id="ProcessOnG1118" transform="matrix(1.0,0.0,0.0,1.0,180.0,168.0)" opacity="1.0"><path id="ProcessOnPath1119" d="M24.681047120418846 0.0L219.31895287958116 0.0L244.0 58.76439790575916L219.31895287958116 117.52879581151832L24.681047120418846 117.52879581151832L0.0 58.76439790575916L24.681047120418846 0.0Z" stroke="#323232" stroke-width="2.0" stroke-dasharray="none" opacity="1.0" fill="#ffffff"/></g><g id="ProcessOnG1120" transform="matrix(1.0,0.0,0.0,1.0,219.0,165.0)" opacity="1.0"><path id="ProcessOnPath1121" d="M0.0 0.0L160.0 0.0L160.0 40.0L0.0 40.0Z" stroke="none" stroke-width="0.0" stroke-dasharray="none" opacity="1.0" fill="none"/><g id="ProcessOnG1122" transform="matrix(1.0,0.0,0.0,1.0,0.0,11.875)"><text id="ProcessOnText1123" fill="#994c00" font-size="13" x="79.0" y="13.325" font-family="微软雅黑" font-weight="normal" font-style="normal" text-decoration="none" family="微软雅黑" text-anchor="middle" size="13">第二阶段</text></g></g><g id="ProcessOnG1124"><path id="ProcessOnPath1125" d="M210.0 256.0L302.0 256.0L302.0 256.0L394.0 256.0" stroke="#a1a1a1" stroke-width="3.0" stroke-dasharray="none" fill="none"/></g><g id="ProcessOnG1126" transform="matrix(1.0,0.0,0.0,1.0,213.25,196.0)" opacity="1.0"><path id="ProcessOnPath1127" d="M0.0 0.0L177.5 0.0L177.5 38.0L0.0 38.0Z" stroke="none" stroke-width="0.0" stroke-dasharray="none" opacity="1.0" fill="none"/><g id="ProcessOnG1128" transform="matrix(1.0,0.0,0.0,1.0,0.0,11.5)"><text id="ProcessOnText1129" fill="#000000" font-size="12" x="0.0" y="12.3" font-family="微软雅黑" font-weight="normal" font-style="normal" text-decoration="none" family="微软雅黑" text-anchor="start" size="12">完成小学入学信息采集</text></g></g><g id="ProcessOnG1130" transform="matrix(1.0,0.0,0.0,1.0,180.0,221.5287958115183)" opacity="1.0"><path id="ProcessOnPath1131" d="M0.0 0.0L160.0 0.0L160.0 40.0L0.0 40.0Z" stroke="none" stroke-width="0.0" stroke-dasharray="none" opacity="1.0" fill="none"/><g id="ProcessOnG1132" transform="matrix(1.0,0.0,0.0,1.0,0.0,5.0)"><text id="ProcessOnText1133" fill="#994c00" font-size="12" x="79.0" y="12.3" font-family="微软雅黑" font-weight="normal" font-style="normal" text-decoration="none" family="微软雅黑" text-anchor="middle" size="12">（2018年5月8日～5月31日</text><text id="ProcessOnText1134" fill="#994c00" font-size="12" x="79.0" y="27.3" font-family="微软雅黑" font-weight="normal" font-style="normal" text-decoration="none" family="微软雅黑" text-anchor="middle" size="12">）</text></g></g><g id="ProcessOnG1135"><path id="ProcessOnPath1136" d="M378.0 275.0L378.0 268.26439790575915L378.0 268.26439790575915L378.0 261.5287958115183" stroke="#a1a1a1" stroke-width="4.0" stroke-dasharray="none" fill="none" marker-start="url(#ProcessOnMarker1137)"/></g><g id="ProcessOnG1139" transform="matrix(1.0,0.0,0.0,1.0,892.5999999999999,168.0)" opacity="1.0"><path id="ProcessOnPath1140" d="M24.681047120418846 0.0L219.31895287958116 0.0L244.0 58.76439790575916L219.31895287958116 117.52879581151832L24.681047120418846 117.52879581151832L0.0 58.76439790575916L24.681047120418846 0.0Z" stroke="#323232" stroke-width="2.0" stroke-dasharray="none" opacity="1.0" fill="#ffffff"/></g><g id="ProcessOnG1141" transform="matrix(1.0,0.0,0.0,1.0,931.5999999999999,165.0)" opacity="1.0"><path id="ProcessOnPath1142" d="M0.0 0.0L160.0 0.0L160.0 40.0L0.0 40.0Z" stroke="none" stroke-width="0.0" stroke-dasharray="none" opacity="1.0" fill="none"/><g id="ProcessOnG1143" transform="matrix(1.0,0.0,0.0,1.0,0.0,11.875)"><text id="ProcessOnText1144" fill="#994c00" font-size="13" x="79.0" y="13.325" font-family="微软雅黑" font-weight="normal" font-style="normal" text-decoration="none" family="微软雅黑" text-anchor="middle" size="13">第六阶段</text></g></g><g id="ProcessOnG1145"><path id="ProcessOnPath1146" d="M922.5999999999999 256.0L1014.5999999999999 256.0L1014.5999999999999 256.0L1106.6 256.0" stroke="#a1a1a1" stroke-width="3.0" stroke-dasharray="none" fill="none"/></g><g id="ProcessOnG1147" transform="matrix(1.0,0.0,0.0,1.0,925.8499999999999,196.0)" opacity="1.0"><path id="ProcessOnPath1148" d="M0.0 0.0L177.5 0.0L177.5 38.0L0.0 38.0Z" stroke="none" stroke-width="0.0" stroke-dasharray="none" opacity="1.0" fill="none"/><g id="ProcessOnG1149" transform="matrix(1.0,0.0,0.0,1.0,0.0,11.5)"><text id="ProcessOnText1150" fill="#000000" font-size="12" x="0.0" y="12.3" font-family="微软雅黑" font-weight="normal" font-style="normal" text-decoration="none" family="微软雅黑" text-anchor="start" size="12">建立新生电子档案</text></g></g><g id="ProcessOnG1151" transform="matrix(1.0,0.0,0.0,1.0,892.5999999999999,221.5287958115183)" opacity="1.0"><path id="ProcessOnPath1152" d="M0.0 0.0L160.0 0.0L160.0 40.0L0.0 40.0Z" stroke="none" stroke-width="0.0" stroke-dasharray="none" opacity="1.0" fill="none"/><g id="ProcessOnG1153" transform="matrix(1.0,0.0,0.0,1.0,0.0,12.5)"><text id="ProcessOnText1154" fill="#994c00" font-size="12" x="79.0" y="12.3" font-family="微软雅黑" font-weight="normal" font-style="normal" text-decoration="none" family="微软雅黑" text-anchor="middle" size="12">（2018年9月1日）</text></g></g><g id="ProcessOnG1155"><path id="ProcessOnPath1156" d="M1090.6 275.0L1090.6 268.26439790575915L1090.6 268.26439790575915L1090.6 261.5287958115183" stroke="#a1a1a1" stroke-width="4.0" stroke-dasharray="none" fill="none" marker-start="url(#ProcessOnMarker1157)"/></g></g></g></svg>