<?xml version="1.0" standalone="no"?><!DOCTYPE svg PUBLIC "-//W3C//DTD SVG 1.1//EN" "http://www.w3.org/Graphics/SVG/1.1/DTD/svg11.dtd"><svg t="1520844663248" class="icon" style="" viewBox="0 0 1024 1024" version="1.1" xmlns="http://www.w3.org/2000/svg" p-id="22200" xmlns:xlink="http://www.w3.org/1999/xlink" width="128" height="128"><defs><style type="text/css"></style></defs><path d="M839.01952 46.08H184.98048c-41.04704 0-74.32192 33.26976-74.32192 74.32192v772.95104c0 41.05728 33.28 74.32704 74.32192 74.32704h456.87808l271.47776-271.47776V120.40192C913.34144 79.34976 880.07168 46.08 839.01952 46.08z" fill="#EBE2CE" p-id="22201"></path><path d="M437.67808 120.40192H214.71232a29.73184 29.73184 0 0 0-29.73184 29.73184V358.23616c0 16.41984 13.312 29.73184 29.73184 29.73184H437.67808c16.41984 0 29.73184-13.312 29.73184-29.73184V150.13376a29.73696 29.73696 0 0 0-29.73184-29.73184z" fill="#ADC2A4" p-id="22202"></path><path d="M541.73184 789.30432H184.98048v29.73184h356.75136v-29.73184z m-59.46368-148.64384H184.98048v29.73184h297.28768v-29.73184z m-148.64384 74.32704H184.98048v29.72672h148.64384v-29.72672z m0-222.97088H184.98048v29.73184h148.64384v-29.73184z m445.93664 74.32192H184.98048v29.72672h594.58048v-29.72672z m-193.23392-208.1024h-59.45856v29.73184h59.45856v-29.73184z m74.3168-74.32192h-133.78048v29.72672h133.78048v-29.72672z m148.64384-74.32192h-282.42432v29.72672h282.42432v-29.72672z m-208.1024 178.37056h163.51232v-29.73184h-163.51232v29.73184z m74.32704-74.32192h163.51232v-29.72672h-163.51232v29.72672z m-312.15616 208.1024h475.66336v-29.73184H363.35616v29.73184z m416.2048-133.78048h59.45856v-29.73184h-59.45856v29.73184zM512 670.39232h327.01952v-29.73184H512v29.73184z m14.86336-535.12704v29.72672h312.15616v-29.72672h-312.15616zM363.35616 893.35296h327.01952v-29.72672H363.35616v29.72672z m-178.37568 0h148.64384v-29.72672H184.98048v29.72672z m535.12704-148.64384h118.91712v-29.72672h-118.91712v29.72672z m-148.64896 74.32704h118.91712v-29.73184h-118.91712v29.73184z m-208.1024-74.32704h327.01952v-29.72672H363.35616v29.72672z" fill="#D2CAB8" p-id="22203"></path><path d="M325.03296 301.79328c27.96544 0 50.63168-27.14624 50.63168-60.61568 0-33.47456-22.66624-60.6208-50.63168-60.6208s-50.63168 27.14624-50.63168 60.6208 22.66624 60.61568 50.63168 60.61568zM412.8256 358.46656s-9.28768-28.8-22.7584-44.12928c-13.47072-15.32928-29.26592 0-29.26592 0s-6.96832 14.40256-30.19264 14.86336H322.7136c-23.22432-0.46592-30.19264-14.86336-30.19264-14.86336s-15.79008-15.32928-29.2608 0-22.76352 44.12928-22.76352 44.12928l-6.96832 14.86336c0 14.40256 14.40256 14.86336 14.40256 14.86336H405.4016s14.40256-0.4608 14.40256-14.86336l-6.97856-14.86336z" fill="#FFFFFF" p-id="22204"></path><path d="M670.14144 707.42016L519.87968 967.68h121.97888l175.35488-175.33952z" fill="" p-id="22205"></path><path d="M690.37568 700.11904a44.5952 44.5952 0 0 0-44.5952 44.59008v219.04896l263.63904-263.63904h-219.04384z" fill="#FFFBF2" p-id="22206"></path></svg>